<?xml version="1.0" encoding="utf-8"?>
<!-- Generator: Adobe Illustrator 19.0.0, SVG Export Plug-In . SVG Version: 6.00 Build 0)  -->
<svg version="1.1" id="Calque_1" xmlns="http://www.w3.org/2000/svg" xmlns:xlink="http://www.w3.org/1999/xlink" x="0px" y="0px"
	 viewBox="-177 467.3 100 100" style="enable-background:new -177 467.3 100 100;" xml:space="preserve">
<style type="text/css">
	.st0{fill:#48484A;}
</style>
<path id="XMLID_33_" class="st0" d="M-133.7,510.8c-6.8,0-13.6,0-20.3,0c-2.3,0-4.3-0.6-6.2-1.8c-4.2-2.7-8.3-5.4-12.5-8.1
	c-0.1-0.1-0.2-0.2-0.4-0.3c-2.6-2-2.4-4.5,0.5-6c8.7-4.4,17.5-8.8,26.2-13.2c7.8-3.9,15.6-7.8,23.4-11.8c1.7-0.8,3.1-0.8,4.7,0.1
	c9.2,4.9,18.5,9.6,27.7,14.4c2.8,1.5,5.7,3,8.5,4.5c2.7,1.4,2.9,4.3,0.3,5.9c-6.9,4.3-13.9,8.5-20.8,12.7c-2.6,1.6-5.4,3.1-8.5,3.5
	c-0.6,0.1-1.2,0.1-1.8,0.1C-119.8,510.8-126.7,510.8-133.7,510.8z M-89.7,491.8c-2.6-1.4-5-2.6-7.4-3.9c-7.4-3.8-14.8-7.7-22.1-11.5
	c-1-0.5-1.8-0.6-2.9-0.1c-13.8,7-27.6,13.9-41.3,20.8c-0.5,0.2-1,0.6-1.6,0.9c0.6,0.4,1,0.7,1.4,1c1.8,1.2,3.7,2.2,5.4,3.5
	c2.7,2,5.6,2.1,8.5,0.8c4.7-1.9,8.4-5.1,11.8-8.7c2.1-2.3,3.9-2.3,6.1-0.1c3.2,3.3,6.8,6.1,11,8c4.5,2.1,9,2.4,13.5-0.3
	c5.4-3.3,10.9-6.4,16.3-9.6C-90.6,492.6-90.3,492.2-89.7,491.8z"/>
<path id="XMLID_31_" class="st0" d="M-79.6,505.2c0,1.5-0.8,2.4-1.9,3c-4.9,2.8-9.8,5.7-14.8,8.5c-11.4,6.6-22.9,13.2-34.3,19.8
	c-3.9,2.2-3.8,2.3-7.6-0.1c-11.1-7.1-22.2-14.3-33.2-21.4c-1.2-0.8-2.5-1.4-2.9-3c-0.3-1.2,0.2-2.6,1.3-3.3c1.5-1.1,1.9-1.1,3.3-0.2
	c11.3,7.3,22.7,14.7,34.1,22c0.8,0.5,1.5,0.7,2.5,0.2c13.7-7.9,27.4-15.8,41.1-23.7c2.5-1.5,5-3,7.5-4.6c1-0.6,1.8-1,3-0.2
	C-80.4,503-79.6,503.8-79.6,505.2z"/>
<path id="XMLID_1_" class="st0" d="M-79.6,518.5c0,1.5-0.8,2.4-1.9,3c-4.9,2.8-9.8,5.7-14.8,8.5c-11.4,6.6-22.9,13.2-34.3,19.8
	c-3.9,2.2-3.8,2.3-7.6-0.1c-11.1-7.1-22.2-14.3-33.2-21.4c-1.2-0.8-2.5-1.4-2.9-3c-0.3-1.2,0.2-2.6,1.3-3.3c1.5-1.1,1.9-1.1,3.3-0.2
	c11.3,7.3,22.7,14.7,34.1,22c0.8,0.5,1.5,0.7,2.5,0.2c13.7-7.9,27.4-15.8,41.1-23.7c2.5-1.5,5-3,7.5-4.6c1-0.6,1.8-1,3-0.2
	C-80.4,516.3-79.6,517.1-79.6,518.5z"/>
<path id="XMLID_2_" class="st0" d="M-79.6,531.8c0,1.5-0.8,2.4-1.9,3c-4.9,2.8-9.8,5.7-14.8,8.5c-11.4,6.6-22.9,13.2-34.3,19.8
	c-3.9,2.2-3.8,2.3-7.6-0.1c-11.1-7.1-22.2-14.3-33.2-21.4c-1.2-0.8-2.5-1.4-2.9-3c-0.3-1.2,0.2-2.6,1.3-3.3c1.5-1.1,1.9-1.1,3.3-0.2
	c11.3,7.3,22.7,14.7,34.1,22c0.8,0.5,1.5,0.7,2.5,0.2c13.7-7.9,27.4-15.8,41.1-23.7c2.5-1.5,5-3,7.5-4.6c1-0.6,1.8-1,3-0.2
	C-80.4,529.6-79.6,530.4-79.6,531.8z"/>
</svg>
