<?xml version="1.0" encoding="utf-8"?>
<!-- Generator: Adobe Illustrator 19.0.0, SVG Export Plug-In . SVG Version: 6.00 Build 0)  -->
<svg version="1.1" id="Calque_1" xmlns="http://www.w3.org/2000/svg" xmlns:xlink="http://www.w3.org/1999/xlink" x="0px" y="0px"
	 width="49.2px" height="49.2px" viewBox="0 0 49.2 49.2" style="enable-background:new 0 0 49.2 49.2;" xml:space="preserve">
<style type="text/css">
	.st0{fill:#F3202E;}
</style>
<path id="XMLID_9_" class="st0" d="M48.2,22.4L26.8,0.9c-1.2-1.2-3.2-1.2-4.5,0l-4.5,4.5l5.7,5.7c1.3-0.4,2.8-0.1,3.9,0.9
	c1.1,1.1,1.3,2.6,0.9,3.9l5.5,5.5c1.3-0.5,2.8-0.2,3.9,0.9c1.5,1.5,1.5,3.9,0,5.3c-1.5,1.5-3.9,1.5-5.3,0c-1.1-1.1-1.4-2.7-0.8-4.1
	l-5.1-5.1l0,13.4c0.4,0.2,0.7,0.4,1,0.7c1.5,1.5,1.5,3.9,0,5.3c-1.5,1.5-3.9,1.5-5.3,0c-1.5-1.5-1.5-3.9,0-5.3
	c0.4-0.4,0.8-0.6,1.2-0.8V18.1c-0.4-0.2-0.9-0.5-1.2-0.8c-1.1-1.1-1.4-2.8-0.8-4.1l-5.6-5.6L0.9,22.3c-1.2,1.2-1.2,3.2,0,4.5
	l21.5,21.5c1.2,1.2,3.2,1.2,4.5,0l21.4-21.4C49.5,25.6,49.5,23.6,48.2,22.4L48.2,22.4z"/>
</svg>
