<?xml version="1.0" encoding="utf-8"?>
<!-- Generator: Adobe Illustrator 19.0.0, SVG Export Plug-In . SVG Version: 6.00 Build 0)  -->
<svg version="1.1" id="Calque_1" xmlns="http://www.w3.org/2000/svg" xmlns:xlink="http://www.w3.org/1999/xlink" x="0px" y="0px"
	 viewBox="-162 558.3 100 100" style="enable-background:new -162 558.3 100 100;" xml:space="preserve">
<style type="text/css">
	.st0{fill:#48484A;}
	.st1{enable-background:new    ;}
</style>
<g id="XMLID_29_">
	<g>
		<path id="XMLID_38_" class="st0" d="M-116,589.4c-4.7,0-9.5,0-14.2,0c-1.6,0-3-0.4-4.3-1.2c-2.9-1.9-5.8-3.8-8.7-5.7
			c-0.1-0.1-0.2-0.1-0.3-0.2c-1.8-1.4-1.7-3.2,0.3-4.2c6.1-3.1,12.2-6.1,18.3-9.2c5.4-2.7,10.9-5.5,16.3-8.2c1.2-0.6,2.1-0.6,3.3,0
			c6.4,3.4,12.9,6.7,19.3,10.1c2,1,4,2.1,5.9,3.1c1.9,1,2,3,0.2,4.1c-4.8,3-9.7,5.9-14.5,8.8c-1.8,1.1-3.7,2.1-5.9,2.5
			c-0.4,0.1-0.8,0.1-1.2,0.1C-106.3,589.4-111.2,589.4-116,589.4z M-85.3,576.2c-1.8-0.9-3.5-1.8-5.2-2.7c-5.1-2.7-10.3-5.3-15.4-8
			c-0.7-0.4-1.3-0.4-2,0c-9.6,4.9-19.2,9.7-28.8,14.5c-0.4,0.2-0.7,0.4-1.1,0.7c0.4,0.3,0.7,0.5,1,0.7c1.2,0.8,2.6,1.6,3.7,2.5
			c1.9,1.4,3.9,1.4,5.9,0.6c3.2-1.3,5.9-3.5,8.3-6.1c1.5-1.6,2.7-1.6,4.2,0c2.2,2.3,4.7,4.2,7.7,5.6c3.2,1.4,6.3,1.7,9.4-0.2
			c3.8-2.3,7.6-4.5,11.4-6.7C-86,576.7-85.7,576.5-85.3,576.2z"/>
		<path id="XMLID_37_" class="st0" d="M-78.3,585.5c0,1-0.5,1.7-1.3,2.1c-3.4,2-6.9,4-10.3,5.9c-8,4.6-16,9.2-23.9,13.8
			c-2.7,1.6-2.7,1.6-5.3-0.1c-7.7-5-15.4-9.9-23.2-14.9c-0.8-0.5-1.8-1-2-2.1c-0.2-0.9,0.1-1.8,0.9-2.3c1-0.7,1.4-0.8,2.3-0.1
			c7.9,5.1,15.8,10.2,23.7,15.3c0.6,0.4,1.1,0.5,1.7,0.1c9.5-5.5,19.1-11,28.6-16.5c1.8-1,3.5-2.1,5.2-3.2c0.7-0.4,1.3-0.7,2.1-0.1
			C-78.9,584-78.3,584.6-78.3,585.5z"/>
		<path id="XMLID_36_" class="st0" d="M-78.3,594.8c0,1-0.5,1.7-1.3,2.1c-3.4,2-6.9,4-10.3,5.9c-8,4.6-16,9.2-23.9,13.8
			c-2.7,1.6-2.7,1.6-5.3-0.1c-7.7-5-15.4-9.9-23.2-14.9c-0.8-0.5-1.8-1-2-2.1c-0.2-0.9,0.1-1.8,0.9-2.3c1-0.7,1.4-0.8,2.3-0.1
			c7.9,5.1,15.8,10.2,23.7,15.3c0.6,0.4,1.1,0.5,1.7,0.1c9.5-5.5,19.1-11,28.6-16.5c1.8-1,3.5-2.1,5.2-3.2c0.7-0.4,1.3-0.7,2.1-0.1
			C-78.9,593.3-78.3,593.9-78.3,594.8z"/>
		<path id="XMLID_35_" class="st0" d="M-78.3,604.1c0,1-0.5,1.7-1.3,2.1c-3.4,2-6.9,4-10.3,5.9c-8,4.6-16,9.2-23.9,13.8
			c-2.7,1.6-2.7,1.6-5.3-0.1c-7.7-5-15.4-9.9-23.2-14.9c-0.8-0.5-1.8-1-2-2.1c-0.2-0.9,0.1-1.8,0.9-2.3c1-0.7,1.4-0.8,2.3-0.1
			c7.9,5.1,15.8,10.2,23.7,15.3c0.6,0.4,1.1,0.5,1.7,0.1c9.5-5.5,19.1-11,28.6-16.5c1.8-1,3.5-2.1,5.2-3.2c0.7-0.4,1.3-0.7,2.1-0.1
			C-78.9,602.6-78.3,603.1-78.3,604.1z"/>
	</g>
</g>
<g class="st1">
	<path class="st0" d="M-143.5,634.9c0.6-0.1,1.2-0.1,1.9-0.2c0.7,0,1.4-0.1,2.2-0.1c2.7,0,4.7,0.7,6.1,2c1.4,1.3,2.1,3.3,2.1,6
		c0,2.7-0.7,4.7-2.1,5.9s-3.5,1.9-6.3,1.9c-0.7,0-1.4,0-2-0.1c-0.6,0-1.2-0.1-1.8-0.2V634.9z M-140.4,647.7c0.1,0,0.3,0,0.5,0
		c0.2,0,0.4,0,0.7,0c0.7,0,1.3-0.1,1.8-0.2c0.6-0.1,1-0.4,1.5-0.8c0.4-0.4,0.7-0.9,1-1.6c0.2-0.7,0.4-1.5,0.4-2.6
		c0-1-0.1-1.9-0.4-2.6c-0.2-0.7-0.6-1.2-1-1.6c-0.4-0.4-0.9-0.7-1.4-0.8s-1.1-0.2-1.7-0.2c-0.2,0-0.4,0-0.7,0c-0.3,0-0.5,0-0.7,0.1
		V647.7z"/>
	<path class="st0" d="M-126.3,645.6c0.1,0.9,0.4,1.5,0.9,1.9s1.2,0.6,2.1,0.6c0.5,0,1,0,1.5-0.1c0.5-0.1,1-0.2,1.4-0.4
		c0.2,0.3,0.3,0.6,0.4,1c0.1,0.4,0.2,0.8,0.2,1.3c-1.1,0.4-2.4,0.6-3.7,0.6c-1,0-1.9-0.1-2.6-0.4c-0.7-0.3-1.3-0.7-1.8-1.2
		c-0.5-0.5-0.8-1.1-1-1.8c-0.2-0.7-0.3-1.5-0.3-2.3c0-0.8,0.1-1.6,0.3-2.3c0.2-0.7,0.6-1.3,1-1.9c0.4-0.5,1-0.9,1.7-1.2
		c0.7-0.3,1.4-0.5,2.3-0.5c0.8,0,1.4,0.1,2,0.4c0.6,0.3,1.1,0.6,1.5,1.1c0.4,0.5,0.7,1,0.9,1.7c0.2,0.6,0.3,1.3,0.3,2.1
		c0,0.3,0,0.5,0,0.8c0,0.3,0,0.5-0.1,0.6H-126.3z M-122,643.5c0-0.7-0.2-1.2-0.6-1.6c-0.3-0.4-0.8-0.6-1.5-0.6
		c-0.7,0-1.2,0.2-1.6,0.6c-0.4,0.4-0.6,1-0.7,1.7H-122z M-123.7,634.9c0.6-0.1,1.2-0.1,1.9-0.1c0.4,0,0.7,0,0.9,0
		c0.3,0,0.5,0.1,0.8,0.1l-3.2,2.6c-0.2,0-0.4,0.1-0.7,0.1s-0.5,0-0.8,0c-0.5,0-0.9,0-1.4-0.1L-123.7,634.9z"/>
	<path class="st0" d="M-116.1,641.5h-1.4c0-0.2-0.1-0.4-0.1-0.6c0-0.2,0-0.4,0-0.6c0-0.4,0-0.8,0.1-1.1h4.4v11.2
		c0,1.4-0.3,2.3-1,2.9s-1.7,0.9-3,0.9c-0.4,0-0.7,0-1.1-0.1c-0.4,0-0.7-0.1-1-0.2c0-0.4,0-0.8,0.1-1.2c0.1-0.4,0.2-0.7,0.3-1
		c0.1,0,0.3,0.1,0.5,0.1s0.4,0,0.6,0c0.2,0,0.4,0,0.6-0.1s0.4-0.2,0.5-0.3c0.1-0.1,0.3-0.4,0.4-0.6s0.1-0.6,0.1-1.1V641.5z
		 M-116.6,637.3c-0.1-0.3-0.1-0.5-0.1-0.7c0-0.2,0-0.4,0-0.6c0-0.2,0-0.4,0-0.6c0-0.2,0-0.4,0.1-0.7c0.3-0.1,0.5-0.1,0.8-0.1
		c0.3,0,0.5,0,0.7,0c0.2,0,0.4,0,0.7,0s0.6,0.1,0.8,0.1c0.1,0.3,0.1,0.5,0.1,0.7c0,0.2,0,0.4,0,0.6c0,0.2,0,0.4,0,0.6
		c0,0.2-0.1,0.4-0.1,0.7c-0.3,0.1-0.5,0.1-0.8,0.1c-0.3,0-0.5,0-0.7,0c-0.2,0-0.5,0-0.7,0C-116.1,637.4-116.3,637.3-116.6,637.3z"/>
	<path class="st0" d="M-104.7,642.9c0-0.3-0.1-0.6-0.2-0.8c-0.1-0.2-0.3-0.4-0.5-0.5c-0.2-0.1-0.4-0.2-0.7-0.2c-0.3,0-0.6-0.1-1-0.1
		c-0.8,0-1.6,0.1-2.4,0.4c-0.2-0.4-0.3-0.7-0.4-1c-0.1-0.3-0.1-0.7-0.1-1.2c0.6-0.2,1.2-0.4,1.9-0.5c0.6-0.1,1.2-0.1,1.7-0.1
		c1.5,0,2.6,0.4,3.5,1.1c0.8,0.7,1.2,1.8,1.2,3.4v6.4c-0.5,0.2-1.1,0.3-1.8,0.4s-1.5,0.2-2.4,0.2c-0.7,0-1.4-0.1-2-0.2
		c-0.6-0.1-1.1-0.3-1.6-0.6c-0.4-0.3-0.8-0.7-1-1.1s-0.4-1-0.4-1.7c0-0.7,0.1-1.3,0.4-1.7s0.7-0.8,1.1-1.1c0.5-0.3,1-0.5,1.5-0.6
		c0.6-0.1,1.1-0.2,1.7-0.2c0.4,0,0.9,0,1.4,0.1V642.9z M-110.2,634.9c0.3,0,0.6-0.1,0.8-0.1c0.3,0,0.6,0,0.9,0c0.7,0,1.3,0,1.9,0.1
		l2.4,2.6c-0.5,0.1-0.9,0.1-1.4,0.1c-0.3,0-0.6,0-0.8,0c-0.3,0-0.5-0.1-0.7-0.1L-110.2,634.9z M-104.7,645.1c-0.2,0-0.4-0.1-0.6-0.1
		c-0.2,0-0.4,0-0.5,0c-0.7,0-1.2,0.1-1.6,0.4c-0.4,0.2-0.6,0.6-0.6,1.2c0,0.4,0.1,0.7,0.2,0.9c0.2,0.2,0.3,0.3,0.6,0.4
		c0.2,0.1,0.5,0.1,0.7,0.2s0.5,0,0.6,0c0.2,0,0.4,0,0.6-0.1c0.2,0,0.4-0.1,0.6-0.1V645.1z"/>
	<path class="st0" d="M-99.1,634.9c0.5-0.1,1-0.1,1.5-0.1c0.5,0,1,0,1.6,0.1v12.6h5.3c0,0.2,0.1,0.5,0.1,0.7c0,0.2,0,0.4,0,0.6
		c0,0.2,0,0.5,0,0.7s0,0.5-0.1,0.7h-8.4V634.9z"/>
	<path class="st0" d="M-88.8,639.2c0.5-0.1,1-0.1,1.5-0.1c0.5,0,1,0,1.5,0.1v5.8c0,0.6,0,1.1,0.1,1.4c0.1,0.4,0.2,0.7,0.4,0.9
		c0.2,0.2,0.4,0.4,0.7,0.5c0.3,0.1,0.6,0.1,1,0.1c0.5,0,1,0,1.3-0.1v-8.6c0.5-0.1,1-0.1,1.5-0.1c0.5,0,1,0,1.5,0.1v10.6
		c-0.5,0.2-1.1,0.3-1.8,0.5c-0.7,0.1-1.5,0.2-2.3,0.2c-0.7,0-1.4-0.1-2.1-0.2s-1.3-0.4-1.8-0.7c-0.5-0.4-0.9-0.9-1.2-1.6
		s-0.4-1.7-0.4-2.8V639.2z"/>
</g>
</svg>
