<?xml version="1.0" encoding="utf-8"?>
<!-- Generator: Adobe Illustrator 19.0.0, SVG Export Plug-In . SVG Version: 6.00 Build 0)  -->
<svg version="1.1" id="Calque_1" xmlns="http://www.w3.org/2000/svg" xmlns:xlink="http://www.w3.org/1999/xlink" x="0px" y="0px"
	 viewBox="-195 264.3 204.5 68" style="enable-background:new -195 264.3 204.5 68;" xml:space="preserve">
<style type="text/css">
	.st0{fill:#48484A;}
	.st1{enable-background:new    ;}
</style>
<g id="XMLID_29_">
	<g>
		<path id="XMLID_38_" class="st0" d="M-166.7,294.2c-4.5,0-9,0-13.5,0c-1.5,0-2.9-0.4-4.1-1.2c-2.8-1.8-5.5-3.6-8.3-5.4
			c-0.1-0.1-0.2-0.1-0.2-0.2c-1.8-1.3-1.6-3,0.3-4c5.8-2.9,11.6-5.9,17.4-8.8c5.2-2.6,10.4-5.2,15.5-7.9c1.1-0.6,2-0.5,3.1,0
			c6.1,3.2,12.3,6.4,18.4,9.6c1.9,1,3.8,2,5.7,3c1.8,0.9,2,2.9,0.2,3.9c-4.6,2.9-9.2,5.6-13.9,8.4c-1.8,1.1-3.6,2-5.7,2.3
			c-0.4,0.1-0.8,0.1-1.2,0.1C-157.5,294.2-162.1,294.2-166.7,294.2z M-137.5,281.6c-1.7-0.9-3.3-1.8-4.9-2.6
			c-4.9-2.6-9.8-5.1-14.7-7.7c-0.7-0.4-1.2-0.4-1.9,0c-9.1,4.6-18.3,9.2-27.5,13.8c-0.3,0.2-0.7,0.4-1.1,0.6
			c0.4,0.3,0.6,0.5,0.9,0.7c1.2,0.8,2.4,1.5,3.6,2.3c1.8,1.4,3.7,1.4,5.7,0.6c3.1-1.3,5.6-3.4,7.9-5.8c1.4-1.5,2.6-1.5,4,0
			c2.1,2.2,4.5,4,7.3,5.3c3,1.4,6,1.6,9-0.2c3.6-2.2,7.2-4.3,10.9-6.4C-138.1,282.1-137.9,281.9-137.5,281.6z"/>
		<path id="XMLID_37_" class="st0" d="M-130.8,290.5c0,1-0.5,1.6-1.3,2c-3.3,1.9-6.5,3.8-9.8,5.7c-7.6,4.4-15.2,8.8-22.8,13.2
			c-2.6,1.5-2.6,1.5-5-0.1c-7.4-4.7-14.7-9.5-22.1-14.2c-0.8-0.5-1.7-0.9-1.9-2c-0.2-0.8,0.1-1.7,0.9-2.2c1-0.7,1.3-0.7,2.2-0.1
			c7.5,4.9,15.1,9.7,22.6,14.6c0.6,0.4,1,0.5,1.7,0.1c9.1-5.3,18.2-10.5,27.3-15.7c1.7-1,3.3-2,5-3.1c0.7-0.4,1.2-0.6,2-0.1
			C-131.4,289.1-130.8,289.6-130.8,290.5z"/>
		<path id="XMLID_36_" class="st0" d="M-130.8,299.3c0,1-0.5,1.6-1.3,2c-3.3,1.9-6.5,3.8-9.8,5.7c-7.6,4.4-15.2,8.8-22.8,13.2
			c-2.6,1.5-2.6,1.5-5-0.1c-7.4-4.7-14.7-9.5-22.1-14.2c-0.8-0.5-1.7-0.9-1.9-2c-0.2-0.8,0.1-1.7,0.9-2.2c1-0.7,1.3-0.7,2.2-0.1
			c7.5,4.9,15.1,9.7,22.6,14.6c0.6,0.4,1,0.5,1.7,0.1c9.1-5.3,18.2-10.5,27.3-15.7c1.7-1,3.3-2,5-3.1c0.7-0.4,1.2-0.6,2-0.1
			C-131.4,297.9-130.8,298.4-130.8,299.3z"/>
		<path id="XMLID_35_" class="st0" d="M-130.8,308.2c0,1-0.5,1.6-1.3,2c-3.3,1.9-6.5,3.8-9.8,5.7c-7.6,4.4-15.2,8.8-22.8,13.2
			c-2.6,1.5-2.6,1.5-5-0.1c-7.4-4.7-14.7-9.5-22.1-14.2c-0.8-0.5-1.7-0.9-1.9-2c-0.2-0.8,0.1-1.7,0.9-2.2c1-0.7,1.3-0.7,2.2-0.1
			c7.5,4.9,15.1,9.7,22.6,14.6c0.6,0.4,1,0.5,1.7,0.1c9.1-5.3,18.2-10.5,27.3-15.7c1.7-1,3.3-2,5-3.1c0.7-0.4,1.2-0.6,2-0.1
			C-131.4,306.7-130.8,307.3-130.8,308.2z"/>
	</g>
</g>
<g class="st1">
	<path class="st0" d="M-111.8,283.1c0.9-0.1,2-0.2,3.2-0.3c1.2-0.1,2.5-0.1,3.7-0.1c4.9,0,8.6,1.2,11,3.8c2.4,2.5,3.7,6.1,3.7,10.8
		c0,4.9-1.2,8.5-3.7,10.9c-2.5,2.4-6.2,3.6-11.1,3.6c-1.2,0-2.4,0-3.6-0.1c-1.2-0.1-2.2-0.2-3.1-0.3V283.1z M-107.8,307.9
		c0.4,0.1,0.8,0.1,1.3,0.1c0.5,0,1.1,0.1,1.7,0.1c1.5,0,2.9-0.2,4.2-0.5c1.3-0.4,2.4-0.9,3.3-1.8c0.9-0.8,1.6-2,2.1-3.4
		c0.5-1.4,0.7-3.2,0.7-5.3c0-2-0.2-3.6-0.7-5c-0.5-1.4-1.2-2.5-2.1-3.4c-0.9-0.9-2-1.5-3.2-1.9c-1.2-0.4-2.6-0.6-4.1-0.6
		c-0.5,0-1,0-1.6,0c-0.6,0-1.1,0.1-1.5,0.1V307.9z"/>
	<path class="st0" d="M-81.9,302.1c0.1,2.2,0.6,3.8,1.7,4.8s2.7,1.5,4.8,1.5c1.8,0,3.6-0.3,5.3-1c0.2,0.4,0.4,0.9,0.5,1.4
		c0.1,0.6,0.2,1.1,0.2,1.7c-0.9,0.4-1.8,0.6-2.8,0.8c-1,0.2-2.2,0.3-3.4,0.3c-1.8,0-3.4-0.3-4.7-0.8s-2.4-1.2-3.2-2.1
		c-0.8-0.9-1.5-2-1.9-3.3s-0.6-2.7-0.6-4.2c0-1.5,0.2-2.9,0.6-4.2s1-2.4,1.7-3.4c0.8-1,1.8-1.7,2.9-2.3c1.2-0.6,2.6-0.8,4.2-0.8
		c1.4,0,2.6,0.2,3.6,0.7c1,0.5,1.9,1.1,2.6,1.9c0.7,0.8,1.2,1.8,1.6,2.9c0.4,1.1,0.5,2.4,0.5,3.7c0,0.4,0,0.7,0,1.2
		c0,0.4-0.1,0.7-0.1,1H-81.9z M-71.9,299.2c0-0.7-0.1-1.4-0.3-2.1s-0.5-1.2-0.9-1.7c-0.4-0.5-0.9-0.9-1.4-1.2
		c-0.6-0.3-1.3-0.4-2.1-0.4c-1.6,0-2.8,0.5-3.7,1.4s-1.4,2.3-1.5,4H-71.9z M-76.2,288c-0.3,0.1-0.6,0.1-0.9,0.1c-0.3,0-0.7,0-1.1,0
		c-0.3,0-0.6,0-0.9,0c-0.3,0-0.6-0.1-0.9-0.1l4.5-5c0.4-0.1,0.8-0.1,1.2-0.1c0.4,0,0.8,0,1.3,0c0.5,0,0.9,0,1.3,0
		c0.4,0,0.8,0.1,1.1,0.1L-76.2,288z"/>
	<path class="st0" d="M-61.7,294.2h-2.5c-0.1-0.2-0.1-0.4-0.1-0.7c0-0.3,0-0.5,0-0.8c0-0.3,0-0.5,0-0.8c0-0.3,0.1-0.5,0.1-0.7h6.3
		v21.2c0,1.2-0.2,2.1-0.5,2.9s-0.7,1.4-1.3,1.9c-0.6,0.5-1.2,0.8-2,1c-0.8,0.2-1.6,0.3-2.5,0.3c-1.4,0-2.6-0.2-3.6-0.5
		c0-0.5,0.1-1,0.2-1.5c0.1-0.5,0.2-1,0.4-1.4c0.6,0.2,1.4,0.3,2.2,0.3c0.3,0,0.7,0,1.1-0.1c0.4-0.1,0.7-0.2,1-0.4
		c0.3-0.2,0.6-0.6,0.8-1c0.2-0.4,0.3-1.1,0.3-1.8V294.2z M-62.7,286.7c-0.1-0.4-0.1-0.7-0.1-1c0-0.3,0-0.6,0-0.9c0-0.3,0-0.6,0-0.9
		c0-0.3,0.1-0.7,0.1-1c0.3-0.1,0.7-0.1,1.1-0.1s0.7-0.1,1-0.1c0.3,0,0.6,0,1,0.1c0.4,0,0.7,0.1,1,0.1c0.1,0.3,0.1,0.7,0.1,1
		c0,0.3,0,0.6,0,0.9c0,0.3,0,0.6,0,0.9c0,0.3-0.1,0.7-0.1,1c-0.3,0.1-0.7,0.1-1,0.1c-0.4,0-0.7,0.1-1,0.1c-0.3,0-0.6,0-1-0.1
		S-62.3,286.7-62.7,286.7z"/>
	<path class="st0" d="M-41.1,298c0-1.5-0.4-2.6-1.2-3.2c-0.8-0.6-1.9-0.9-3.4-0.9c-0.9,0-1.8,0.1-2.6,0.2c-0.8,0.1-1.6,0.3-2.3,0.6
		c-0.5-0.9-0.7-1.9-0.7-3.1c0.9-0.3,1.9-0.5,2.9-0.7c1.1-0.2,2.1-0.2,3.1-0.2c2.6,0,4.6,0.6,5.9,1.8c1.4,1.2,2,3.1,2,5.7v12.5
		c-0.9,0.2-2,0.4-3.3,0.6c-1.3,0.2-2.6,0.3-4,0.3c-1.3,0-2.4-0.1-3.5-0.4s-1.9-0.6-2.6-1.1c-0.7-0.5-1.3-1.2-1.7-2
		c-0.4-0.8-0.6-1.8-0.6-2.9c0-1.1,0.2-2.1,0.7-3c0.5-0.8,1.1-1.5,1.9-2.1s1.7-1,2.7-1.3s2.1-0.4,3.2-0.4c0.8,0,1.5,0,2.1,0.1
		s1,0.1,1.3,0.1V298z M-51.2,283c0.4-0.1,0.8-0.1,1.2-0.1c0.4,0,0.8,0,1.3,0c0.4,0,0.8,0,1.3,0c0.4,0,0.8,0.1,1.2,0.1l4.5,5
		c-0.6,0.1-1.2,0.2-1.8,0.2c-0.4,0-0.8,0-1.1,0c-0.4,0-0.7-0.1-1-0.1L-51.2,283z M-41.1,301.8c-0.4-0.1-0.9-0.1-1.5-0.2
		c-0.6-0.1-1.1-0.1-1.5-0.1c-1.6,0-2.8,0.3-3.7,0.9c-0.8,0.6-1.3,1.5-1.3,2.7c0,0.8,0.1,1.4,0.4,1.8c0.3,0.4,0.6,0.8,1.1,1
		s0.9,0.4,1.4,0.4c0.5,0.1,1,0.1,1.5,0.1c0.6,0,1.2,0,1.9-0.1c0.6-0.1,1.2-0.2,1.7-0.3V301.8z"/>
	<path class="st0" d="M-31.2,283.1c0.3-0.1,0.6-0.1,0.9-0.1c0.3,0,0.7,0,1,0c0.3,0,0.7,0,1,0c0.3,0,0.7,0.1,1,0.1v24.6h11
		c0.1,0.3,0.1,0.6,0.1,0.9c0,0.3,0,0.6,0,0.9c0,0.6,0,1.2-0.1,1.8h-15V283.1z"/>
	<path class="st0" d="M-12.4,291.1c0.3-0.1,0.6-0.1,1-0.1c0.4,0,0.7,0,0.9,0c0.3,0,0.6,0,1,0c0.4,0,0.7,0.1,1,0.1v11
		c0,1.2,0.1,2.3,0.4,3.1s0.6,1.5,1.1,1.9c0.5,0.5,1,0.8,1.7,1c0.7,0.2,1.5,0.3,2.3,0.3c1.3,0,2.5-0.1,3.4-0.4v-16.8
		c0.3-0.1,0.6-0.1,1-0.1c0.4,0,0.7,0,1,0c0.3,0,0.6,0,1,0c0.4,0,0.7,0.1,1,0.1v19.4c-0.9,0.3-2,0.5-3.3,0.7s-2.6,0.4-3.9,0.4
		c-1.3,0-2.5-0.1-3.6-0.3c-1.1-0.2-2.1-0.7-3-1.3s-1.5-1.6-2-2.9c-0.5-1.2-0.7-2.8-0.7-4.8V291.1z"/>
</g>
</svg>
