<?xml version="1.0" encoding="utf-8"?>
<!-- Generator: Adobe Illustrator 19.0.0, SVG Export Plug-In . SVG Version: 6.00 Build 0)  -->
<svg version="1.1" id="Calque_1" xmlns="http://www.w3.org/2000/svg" xmlns:xlink="http://www.w3.org/1999/xlink" x="0px" y="0px"
	 width="204.5px" height="69.6px" viewBox="-399.5 298.5 204.5 69.6" style="enable-background:new -399.5 298.5 204.5 69.6;"
	 xml:space="preserve">
<style type="text/css">
	.st0{fill:#48484A;}
	.st1{enable-background:new    ;}
</style>
<g id="XMLID_29_">
	<g>
		<path id="XMLID_38_" class="st0" d="M-369.1,329.2c-4.5,0-9,0-13.5,0c-1.5,0-2.9-0.4-4.1-1.2c-2.8-1.8-5.5-3.6-8.3-5.4
			c-0.1-0.1-0.2-0.1-0.2-0.2c-1.8-1.3-1.6-3,0.3-4c5.8-2.9,11.6-5.9,17.4-8.8c5.2-2.6,10.4-5.2,15.5-7.9c1.1-0.6,2-0.5,3.1,0
			c6.1,3.2,12.3,6.4,18.4,9.6c1.9,1,3.8,2,5.7,3c1.8,0.9,2,2.9,0.2,3.9c-4.6,2.9-9.2,5.6-13.9,8.4c-1.8,1.1-3.6,2-5.7,2.3
			c-0.4,0.1-0.8,0.1-1.2,0.1C-359.9,329.2-364.5,329.2-369.1,329.2z M-339.9,316.6c-1.7-0.9-3.3-1.8-4.9-2.6
			c-4.9-2.6-9.8-5.1-14.7-7.7c-0.7-0.4-1.2-0.4-1.9,0c-9.1,4.6-18.3,9.2-27.5,13.8c-0.3,0.2-0.7,0.4-1.1,0.6
			c0.4,0.3,0.6,0.5,0.9,0.7c1.2,0.8,2.4,1.5,3.6,2.3c1.8,1.4,3.7,1.4,5.7,0.6c3.1-1.3,5.6-3.4,7.9-5.8c1.4-1.5,2.6-1.5,4,0
			c2.1,2.2,4.5,4,7.3,5.3c3,1.4,6,1.6,9-0.2c3.6-2.2,7.2-4.3,10.9-6.4C-340.5,317.1-340.3,316.9-339.9,316.6z"/>
		<path id="XMLID_37_" class="st0" d="M-333.2,325.5c0,1-0.5,1.6-1.3,2c-3.3,1.9-6.5,3.8-9.8,5.7c-7.6,4.4-15.2,8.8-22.8,13.2
			c-2.6,1.5-2.6,1.5-5-0.1c-7.4-4.7-14.7-9.5-22.1-14.2c-0.8-0.5-1.7-0.9-1.9-2c-0.2-0.8,0.1-1.7,0.9-2.2c1-0.7,1.3-0.7,2.2-0.1
			c7.5,4.9,15.1,9.7,22.6,14.6c0.6,0.4,1,0.5,1.7,0.1c9.1-5.3,18.2-10.5,27.3-15.7c1.7-1,3.3-2,5-3.1c0.7-0.4,1.2-0.6,2-0.1
			C-333.8,324.1-333.2,324.6-333.2,325.5z"/>
		<path id="XMLID_36_" class="st0" d="M-333.2,334.3c0,1-0.5,1.6-1.3,2c-3.3,1.9-6.5,3.8-9.8,5.7c-7.6,4.4-15.2,8.8-22.8,13.2
			c-2.6,1.5-2.6,1.5-5-0.1c-7.4-4.7-14.7-9.5-22.1-14.2c-0.8-0.5-1.7-0.9-1.9-2c-0.2-0.8,0.1-1.7,0.9-2.2c1-0.7,1.3-0.7,2.2-0.1
			c7.5,4.9,15.1,9.7,22.6,14.6c0.6,0.4,1,0.5,1.7,0.1c9.1-5.3,18.2-10.5,27.3-15.7c1.7-1,3.3-2,5-3.1c0.7-0.4,1.2-0.6,2-0.1
			C-333.8,332.9-333.2,333.4-333.2,334.3z"/>
		<path id="XMLID_35_" class="st0" d="M-333.2,343.2c0,1-0.5,1.6-1.3,2c-3.3,1.9-6.5,3.8-9.8,5.7c-7.6,4.4-15.2,8.8-22.8,13.2
			c-2.6,1.5-2.6,1.5-5-0.1c-7.4-4.7-14.7-9.5-22.1-14.2c-0.8-0.5-1.7-0.9-1.9-2c-0.2-0.8,0.1-1.7,0.9-2.2c1-0.7,1.3-0.7,2.2-0.1
			c7.5,4.9,15.1,9.7,22.6,14.6c0.6,0.4,1,0.5,1.7,0.1c9.1-5.3,18.2-10.5,27.3-15.7c1.7-1,3.3-2,5-3.1c0.7-0.4,1.2-0.6,2-0.1
			C-333.8,341.7-333.2,342.3-333.2,343.2z"/>
	</g>
</g>
<g class="st1">
	<path class="st0" d="M-314.2,318.1c0.9-0.1,2-0.2,3.2-0.3s2.5-0.1,3.7-0.1c4.9,0,8.6,1.2,11,3.8c2.4,2.5,3.7,6.1,3.7,10.8
		c0,4.9-1.2,8.5-3.7,10.9s-6.2,3.6-11.1,3.6c-1.2,0-2.4,0-3.6-0.1s-2.2-0.2-3.1-0.3L-314.2,318.1L-314.2,318.1z M-310.2,342.9
		c0.4,0.1,0.8,0.1,1.3,0.1s1.1,0.1,1.7,0.1c1.5,0,2.9-0.2,4.2-0.5c1.3-0.4,2.4-0.9,3.3-1.8c0.9-0.8,1.6-2,2.1-3.4s0.7-3.2,0.7-5.3
		c0-2-0.2-3.6-0.7-5s-1.2-2.5-2.1-3.4s-2-1.5-3.2-1.9s-2.6-0.6-4.1-0.6c-0.5,0-1,0-1.6,0s-1.1,0.1-1.5,0.1L-310.2,342.9
		L-310.2,342.9L-310.2,342.9z"/>
	<path class="st0" d="M-284.3,337.1c0.1,2.2,0.6,3.8,1.7,4.8s2.7,1.5,4.8,1.5c1.8,0,3.6-0.3,5.3-1c0.2,0.4,0.4,0.9,0.5,1.4
		c0.1,0.6,0.2,1.1,0.2,1.7c-0.9,0.4-1.8,0.6-2.8,0.8s-2.2,0.3-3.4,0.3c-1.8,0-3.4-0.3-4.7-0.8s-2.4-1.2-3.2-2.1
		c-0.8-0.9-1.5-2-1.9-3.3s-0.6-2.7-0.6-4.2s0.2-2.9,0.6-4.2s1-2.4,1.7-3.4c0.8-1,1.8-1.7,2.9-2.3c1.2-0.6,2.6-0.8,4.2-0.8
		c1.4,0,2.6,0.2,3.6,0.7s1.9,1.1,2.6,1.9c0.7,0.8,1.2,1.8,1.6,2.9c0.4,1.1,0.5,2.4,0.5,3.7c0,0.4,0,0.7,0,1.2c0,0.4-0.1,0.7-0.1,1
		h-13.5C-284.3,336.9-284.3,337.1-284.3,337.1z M-274.3,334.2c0-0.7-0.1-1.4-0.3-2.1s-0.5-1.2-0.9-1.7s-0.9-0.9-1.4-1.2
		c-0.6-0.3-1.3-0.4-2.1-0.4c-1.6,0-2.8,0.5-3.7,1.4c-0.9,0.9-1.4,2.3-1.5,4H-274.3L-274.3,334.2z M-278.6,323
		c-0.3,0.1-0.6,0.1-0.9,0.1s-0.7,0-1.1,0c-0.3,0-0.6,0-0.9,0s-0.6-0.1-0.9-0.1l4.5-5c0.4-0.1,0.8-0.1,1.2-0.1c0.4,0,0.8,0,1.3,0
		s0.9,0,1.3,0s0.8,0.1,1.1,0.1L-278.6,323z"/>
	<path class="st0" d="M-264.1,329.2h-2.5c-0.1-0.2-0.1-0.4-0.1-0.7s0-0.5,0-0.8s0-0.5,0-0.8s0.1-0.5,0.1-0.7h6.3v21.2
		c0,1.2-0.2,2.1-0.5,2.9c-0.3,0.8-0.7,1.4-1.3,1.9s-1.2,0.8-2,1s-1.6,0.3-2.5,0.3c-1.4,0-2.6-0.2-3.6-0.5c0-0.5,0.1-1,0.2-1.5
		s0.2-1,0.4-1.4c0.6,0.2,1.4,0.3,2.2,0.3c0.3,0,0.7,0,1.1-0.1s0.7-0.2,1-0.4s0.6-0.6,0.8-1c0.2-0.4,0.3-1.1,0.3-1.8L-264.1,329.2
		L-264.1,329.2z M-265.1,321.7c-0.1-0.4-0.1-0.7-0.1-1s0-0.6,0-0.9s0-0.6,0-0.9s0.1-0.7,0.1-1c0.3-0.1,0.7-0.1,1.1-0.1
		s0.7-0.1,1-0.1s0.6,0,1,0.1c0.4,0,0.7,0.1,1,0.1c0.1,0.3,0.1,0.7,0.1,1s0,0.6,0,0.9s0,0.6,0,0.9s-0.1,0.7-0.1,1
		c-0.3,0.1-0.7,0.1-1,0.1c-0.4,0-0.7,0.1-1,0.1s-0.6,0-1-0.1S-264.7,321.7-265.1,321.7z"/>
	<path class="st0" d="M-243.5,333c0-1.5-0.4-2.6-1.2-3.2c-0.8-0.6-1.9-0.9-3.4-0.9c-0.9,0-1.8,0.1-2.6,0.2c-0.8,0.1-1.6,0.3-2.3,0.6
		c-0.5-0.9-0.7-1.9-0.7-3.1c0.9-0.3,1.9-0.5,2.9-0.7c1.1-0.2,2.1-0.2,3.1-0.2c2.6,0,4.6,0.6,5.9,1.8c1.4,1.2,2,3.1,2,5.7v12.5
		c-0.9,0.2-2,0.4-3.3,0.6c-1.3,0.2-2.6,0.3-4,0.3c-1.3,0-2.4-0.1-3.5-0.4c-1.1-0.3-1.9-0.6-2.6-1.1s-1.3-1.2-1.7-2s-0.6-1.8-0.6-2.9
		c0-1.1,0.2-2.1,0.7-3c0.5-0.8,1.1-1.5,1.9-2.1c0.8-0.6,1.7-1,2.7-1.3s2.1-0.4,3.2-0.4c0.8,0,1.5,0,2.1,0.1s1,0.1,1.3,0.1
		L-243.5,333L-243.5,333z M-253.6,318c0.4-0.1,0.8-0.1,1.2-0.1s0.8,0,1.3,0c0.4,0,0.8,0,1.3,0c0.4,0,0.8,0.1,1.2,0.1l4.5,5
		c-0.6,0.1-1.2,0.2-1.8,0.2c-0.4,0-0.8,0-1.1,0c-0.4,0-0.7-0.1-1-0.1L-253.6,318z M-243.5,336.8c-0.4-0.1-0.9-0.1-1.5-0.2
		c-0.6-0.1-1.1-0.1-1.5-0.1c-1.6,0-2.8,0.3-3.7,0.9c-0.8,0.6-1.3,1.5-1.3,2.7c0,0.8,0.1,1.4,0.4,1.8c0.3,0.4,0.6,0.8,1.1,1
		s0.9,0.4,1.4,0.4c0.5,0.1,1,0.1,1.5,0.1c0.6,0,1.2,0,1.9-0.1c0.6-0.1,1.2-0.2,1.7-0.3C-243.5,343-243.5,336.8-243.5,336.8z"/>
	<path class="st0" d="M-233.6,318.1c0.3-0.1,0.6-0.1,0.9-0.1s0.7,0,1,0s0.7,0,1,0s0.7,0.1,1,0.1v24.6h11c0.1,0.3,0.1,0.6,0.1,0.9
		s0,0.6,0,0.9c0,0.6,0,1.2-0.1,1.8h-15L-233.6,318.1L-233.6,318.1L-233.6,318.1z"/>
	<path class="st0" d="M-214.8,326.1c0.3-0.1,0.6-0.1,1-0.1s0.7,0,0.9,0c0.3,0,0.6,0,1,0s0.7,0.1,1,0.1v11c0,1.2,0.1,2.3,0.4,3.1
		c0.3,0.8,0.6,1.5,1.1,1.9c0.5,0.5,1,0.8,1.7,1s1.5,0.3,2.3,0.3c1.3,0,2.5-0.1,3.4-0.4v-16.8c0.3-0.1,0.6-0.1,1-0.1s0.7,0,1,0
		s0.6,0,1,0s0.7,0.1,1,0.1v19.4c-0.9,0.3-2,0.5-3.3,0.7s-2.6,0.4-3.9,0.4s-2.5-0.1-3.6-0.3s-2.1-0.7-3-1.3s-1.5-1.6-2-2.9
		c-0.5-1.2-0.7-2.8-0.7-4.8v-11.3L-214.8,326.1L-214.8,326.1z"/>
</g>
</svg>
