<?xml version="1.0" encoding="utf-8"?>
<!-- Generator: Adobe Illustrator 19.0.0, SVG Export Plug-In . SVG Version: 6.00 Build 0)  -->
<svg version="1.1" id="Calque_1" xmlns="http://www.w3.org/2000/svg" xmlns:xlink="http://www.w3.org/1999/xlink" x="0px" y="0px"
	 viewBox="-297.4 264.3 274.1 68" style="enable-background:new -297.4 264.3 274.1 68;" xml:space="preserve">
<style type="text/css">
	.st0{fill:#FFFFFF;}
	.st1{enable-background:new    ;}
	.st2{opacity:0.6;}
</style>
<g id="XMLID_29_">
	<g>
		<path id="XMLID_38_" class="st0" d="M-164.6,294.2c-4.5,0-9,0-13.5,0c-1.5,0-2.9-0.4-4.1-1.2c-2.8-1.8-5.5-3.6-8.3-5.4
			c-0.1-0.1-0.2-0.1-0.2-0.2c-1.8-1.3-1.6-3,0.3-4c5.8-2.9,11.6-5.9,17.4-8.8c5.2-2.6,10.4-5.2,15.5-7.9c1.1-0.6,2-0.5,3.1,0
			c6.1,3.2,12.3,6.4,18.4,9.6c1.9,1,3.8,2,5.7,3c1.8,0.9,2,2.9,0.2,3.9c-4.6,2.9-9.2,5.6-13.9,8.4c-1.8,1.1-3.6,2-5.7,2.3
			c-0.4,0.1-0.8,0.1-1.2,0.1C-155.4,294.2-160,294.2-164.6,294.2z M-135.4,281.6c-1.7-0.9-3.3-1.8-4.9-2.6
			c-4.9-2.6-9.8-5.1-14.7-7.7c-0.7-0.4-1.2-0.4-1.9,0c-9.1,4.6-18.3,9.2-27.5,13.8c-0.3,0.2-0.7,0.4-1.1,0.6
			c0.4,0.3,0.6,0.5,0.9,0.7c1.2,0.8,2.4,1.5,3.6,2.3c1.8,1.4,3.7,1.4,5.7,0.6c3.1-1.3,5.6-3.4,7.9-5.8c1.4-1.5,2.6-1.5,4,0
			c2.1,2.2,4.5,4,7.3,5.3c3,1.4,6,1.6,9-0.2c3.6-2.2,7.2-4.3,10.9-6.4C-136,282.1-135.8,281.9-135.4,281.6z"/>
		<path id="XMLID_37_" class="st0" d="M-128.7,290.5c0,1-0.5,1.6-1.3,2c-3.3,1.9-6.5,3.8-9.8,5.7c-7.6,4.4-15.2,8.8-22.8,13.2
			c-2.6,1.5-2.6,1.5-5-0.1c-7.4-4.7-14.7-9.5-22.1-14.2c-0.8-0.5-1.7-0.9-1.9-2c-0.2-0.8,0.1-1.7,0.9-2.2c1-0.7,1.3-0.7,2.2-0.1
			c7.5,4.9,15.1,9.7,22.6,14.6c0.6,0.4,1,0.5,1.7,0.1c9.1-5.3,18.2-10.5,27.3-15.7c1.7-1,3.3-2,5-3.1c0.7-0.4,1.2-0.6,2-0.1
			C-129.3,289.1-128.7,289.6-128.7,290.5z"/>
		<path id="XMLID_36_" class="st0" d="M-128.7,299.3c0,1-0.5,1.6-1.3,2c-3.3,1.9-6.5,3.8-9.8,5.7c-7.6,4.4-15.2,8.8-22.8,13.2
			c-2.6,1.5-2.6,1.5-5-0.1c-7.4-4.7-14.7-9.5-22.1-14.2c-0.8-0.5-1.7-0.9-1.9-2c-0.2-0.8,0.1-1.7,0.9-2.2c1-0.7,1.3-0.7,2.2-0.1
			c7.5,4.9,15.1,9.7,22.6,14.6c0.6,0.4,1,0.5,1.7,0.1c9.1-5.3,18.2-10.5,27.3-15.7c1.7-1,3.3-2,5-3.1c0.7-0.4,1.2-0.6,2-0.1
			C-129.3,297.9-128.7,298.4-128.7,299.3z"/>
		<path id="XMLID_35_" class="st0" d="M-128.7,308.2c0,1-0.5,1.6-1.3,2c-3.3,1.9-6.5,3.8-9.8,5.7c-7.6,4.4-15.2,8.8-22.8,13.2
			c-2.6,1.5-2.6,1.5-5-0.1c-7.4-4.7-14.7-9.5-22.1-14.2c-0.8-0.5-1.7-0.9-1.9-2c-0.2-0.8,0.1-1.7,0.9-2.2c1-0.7,1.3-0.7,2.2-0.1
			c7.5,4.9,15.1,9.7,22.6,14.6c0.6,0.4,1,0.5,1.7,0.1c9.1-5.3,18.2-10.5,27.3-15.7c1.7-1,3.3-2,5-3.1c0.7-0.4,1.2-0.6,2-0.1
			C-129.3,306.7-128.7,307.3-128.7,308.2z"/>
	</g>
</g>
<g class="st1">
	<path class="st0" d="M-119.1,271.8c0.7-0.1,1.6-0.2,2.6-0.2c1-0.1,2-0.1,3-0.1c3.9,0,6.9,1,8.8,3c1.9,2,3,4.9,3,8.6
		c0,3.9-1,6.8-3,8.7c-2,1.9-4.9,2.9-8.9,2.9c-1,0-1.9,0-2.9-0.1c-1-0.1-1.8-0.2-2.5-0.2L-119.1,271.8L-119.1,271.8z M-115.9,291.6
		c0.3,0.1,0.6,0.1,1,0.1s0.9,0.1,1.4,0.1c1.2,0,2.3-0.2,3.4-0.4c1-0.3,1.9-0.7,2.6-1.4c0.7-0.6,1.3-1.6,1.7-2.7s0.6-2.6,0.6-4.2
		c0-1.6-0.2-2.9-0.6-4s-1-2-1.7-2.7s-1.6-1.2-2.6-1.5c-1-0.3-2.1-0.5-3.3-0.5c-0.4,0-0.8,0-1.3,0c-0.5,0-0.9,0.1-1.2,0.1
		L-115.9,291.6L-115.9,291.6z"/>
	<path class="st0" d="M-95.2,287c0.1,1.8,0.5,3,1.4,3.8c0.9,0.8,2.2,1.2,3.8,1.2c1.4,0,2.9-0.2,4.2-0.8c0.2,0.3,0.3,0.7,0.4,1.1
		c0.1,0.5,0.2,0.9,0.2,1.4c-0.7,0.3-1.4,0.5-2.2,0.6c-0.8,0.2-1.8,0.2-2.7,0.2c-1.4,0-2.7-0.2-3.7-0.6s-1.9-1-2.6-1.7
		c-0.6-0.7-1.2-1.6-1.5-2.6c-0.3-1-0.5-2.2-0.5-3.4c0-1.2,0.2-2.3,0.5-3.4c0.3-1,0.8-1.9,1.4-2.7c0.6-0.8,1.4-1.4,2.3-1.8
		c1-0.5,2.1-0.6,3.4-0.6c1.1,0,2.1,0.2,2.9,0.6s1.5,0.9,2.1,1.5c0.6,0.6,1,1.4,1.3,2.3c0.3,0.9,0.4,1.9,0.4,3c0,0.3,0,0.6,0,1
		c0,0.3-0.1,0.6-0.1,0.8h-10.8V287z M-87.3,284.6c0-0.6-0.1-1.1-0.2-1.7c-0.2-0.6-0.4-1-0.7-1.4c-0.3-0.4-0.7-0.7-1.1-1
		c-0.5-0.2-1-0.3-1.7-0.3c-1.3,0-2.2,0.4-3,1.1c-0.7,0.7-1.1,1.8-1.2,3.2H-87.3L-87.3,284.6z M-90.7,275.7c-0.2,0.1-0.5,0.1-0.7,0.1
		s-0.6,0-0.9,0c-0.2,0-0.5,0-0.7,0s-0.5-0.1-0.7-0.1l3.6-4c0.3-0.1,0.6-0.1,1-0.1c0.3,0,0.6,0,1,0s0.7,0,1,0s0.6,0.1,0.9,0.1
		L-90.7,275.7z"/>
	<path class="st0" d="M-79.1,280.6h-2c-0.1-0.2-0.1-0.3-0.1-0.6c0-0.2,0-0.4,0-0.6s0-0.4,0-0.6s0.1-0.4,0.1-0.6h5v16.9
		c0,1-0.2,1.7-0.4,2.3c-0.2,0.6-0.6,1.1-1,1.5s-1,0.6-1.6,0.8c-0.6,0.2-1.3,0.2-2,0.2c-1.1,0-2.1-0.2-2.9-0.4c0-0.4,0.1-0.8,0.2-1.2
		c0.1-0.4,0.2-0.8,0.3-1.1c0.5,0.2,1.1,0.2,1.8,0.2c0.2,0,0.6,0,0.9-0.1c0.3-0.1,0.6-0.2,0.8-0.3c0.2-0.2,0.5-0.5,0.6-0.8
		c0.2-0.3,0.2-0.9,0.2-1.4L-79.1,280.6L-79.1,280.6z M-79.9,274.7c-0.1-0.3-0.1-0.6-0.1-0.8s0-0.5,0-0.7s0-0.5,0-0.7
		s0.1-0.6,0.1-0.8c0.2-0.1,0.6-0.1,0.9-0.1s0.6-0.1,0.8-0.1c0.2,0,0.5,0,0.8,0.1c0.3,0,0.6,0.1,0.8,0.1c0.1,0.2,0.1,0.6,0.1,0.8
		s0,0.5,0,0.7s0,0.5,0,0.7s-0.1,0.6-0.1,0.8c-0.2,0.1-0.6,0.1-0.8,0.1c-0.3,0-0.6,0.1-0.8,0.1c-0.2,0-0.5,0-0.8-0.1
		C-79.4,274.7-79.6,274.7-79.9,274.7z"/>
	<path class="st0" d="M-62.7,283.7c0-1.2-0.3-2.1-1-2.6c-0.6-0.5-1.5-0.7-2.7-0.7c-0.7,0-1.4,0.1-2.1,0.2c-0.6,0.1-1.3,0.2-1.8,0.5
		c-0.4-0.7-0.6-1.5-0.6-2.5c0.7-0.2,1.5-0.4,2.3-0.6c0.9-0.2,1.7-0.2,2.5-0.2c2.1,0,3.7,0.5,4.7,1.4c1.1,1,1.6,2.5,1.6,4.5v10
		c-0.7,0.2-1.6,0.3-2.6,0.5c-1,0.2-2.1,0.2-3.2,0.2c-1,0-1.9-0.1-2.8-0.3s-1.5-0.5-2.1-0.9c-0.6-0.4-1-1-1.4-1.6
		c-0.3-0.6-0.5-1.4-0.5-2.3s0.2-1.7,0.6-2.4c0.4-0.6,0.9-1.2,1.5-1.7c0.6-0.5,1.4-0.8,2.2-1s1.7-0.3,2.6-0.3c0.6,0,1.2,0,1.7,0.1
		c0.5,0.1,0.8,0.1,1,0.1L-62.7,283.7L-62.7,283.7z M-70.8,271.7c0.3-0.1,0.6-0.1,1-0.1c0.3,0,0.6,0,1,0c0.3,0,0.6,0,1,0
		c0.3,0,0.6,0.1,1,0.1l3.6,4c-0.5,0.1-1,0.2-1.4,0.2c-0.3,0-0.6,0-0.9,0c-0.3,0-0.6-0.1-0.8-0.1L-70.8,271.7z M-62.7,286.7
		c-0.3-0.1-0.7-0.1-1.2-0.2c-0.5-0.1-0.9-0.1-1.2-0.1c-1.3,0-2.2,0.2-3,0.7c-0.6,0.5-1,1.2-1,2.2c0,0.6,0.1,1.1,0.3,1.4
		s0.5,0.6,0.9,0.8c0.4,0.2,0.7,0.3,1.1,0.3c0.4,0.1,0.8,0.1,1.2,0.1c0.5,0,1,0,1.5-0.1c0.5-0.1,1-0.2,1.4-0.2
		C-62.7,291.7-62.7,286.7-62.7,286.7z"/>
	<path class="st0" d="M-54.8,271.8c0.2-0.1,0.5-0.1,0.7-0.1c0.2,0,0.6,0,0.8,0c0.2,0,0.6,0,0.8,0s0.6,0.1,0.8,0.1v19.6h8.8
		c0.1,0.2,0.1,0.5,0.1,0.7s0,0.5,0,0.7c0,0.5,0,1-0.1,1.4h-12L-54.8,271.8L-54.8,271.8z"/>
	<path class="st0" d="M-39.8,278.2c0.2-0.1,0.5-0.1,0.8-0.1s0.6,0,0.7,0c0.2,0,0.5,0,0.8,0c0.3,0,0.6,0.1,0.8,0.1v8.8
		c0,1,0.1,1.8,0.3,2.5c0.2,0.6,0.5,1.2,0.9,1.5c0.4,0.4,0.8,0.6,1.4,0.8c0.6,0.2,1.2,0.2,1.8,0.2c1,0,2-0.1,2.7-0.3v-13.4
		c0.2-0.1,0.5-0.1,0.8-0.1s0.6,0,0.8,0c0.2,0,0.5,0,0.8,0s0.6,0.1,0.8,0.1v15.5c-0.7,0.2-1.6,0.4-2.6,0.6s-2.1,0.3-3.1,0.3
		s-2-0.1-2.9-0.2c-0.9-0.2-1.7-0.6-2.4-1s-1.2-1.3-1.6-2.3c-0.4-1-0.6-2.2-0.6-3.8v-9H-39.8z"/>
</g>
<g class="st2">
	<path class="st0" d="M-118.7,305.7c0.5-0.1,1.1-0.1,1.9-0.2c0.7-0.1,1.4-0.1,2.1-0.1c2.9,0,5,0.7,6.4,2.2c1.4,1.5,2.1,3.6,2.1,6.3
		c0,2.9-0.7,5-2.2,6.4s-3.6,2.1-6.5,2.1c-0.7,0-1.4,0-2.1-0.1c-0.7-0.1-1.3-0.1-1.8-0.2V305.7z M-116.4,320.2c0.2,0,0.5,0.1,0.8,0.1
		c0.3,0,0.6,0,1,0c0.9,0,1.7-0.1,2.4-0.3c0.7-0.2,1.4-0.5,1.9-1c0.5-0.5,0.9-1.1,1.2-2c0.3-0.8,0.4-1.9,0.4-3.1
		c0-1.1-0.1-2.1-0.4-2.9c-0.3-0.8-0.7-1.5-1.2-2c-0.5-0.5-1.2-0.9-1.9-1.1s-1.5-0.3-2.4-0.3c-0.3,0-0.6,0-0.9,0
		c-0.3,0-0.6,0-0.9,0.1V320.2z"/>
	<path class="st0" d="M-102.3,312.2h-1.5c0-0.1-0.1-0.3-0.1-0.4c0-0.2,0-0.3,0-0.5c0-0.2,0-0.3,0-0.5s0-0.3,0.1-0.4h3.7v12.3
		c0,0.7-0.1,1.3-0.3,1.7c-0.2,0.5-0.4,0.8-0.8,1.1c-0.3,0.3-0.7,0.5-1.2,0.6c-0.4,0.1-0.9,0.2-1.4,0.2c-0.8,0-1.5-0.1-2.1-0.3
		c0-0.3,0.1-0.6,0.1-0.9c0.1-0.3,0.1-0.6,0.3-0.8c0.4,0.1,0.8,0.2,1.3,0.2c0.2,0,0.4,0,0.6,0c0.2,0,0.4-0.1,0.6-0.2
		c0.2-0.1,0.3-0.3,0.5-0.6c0.1-0.3,0.2-0.6,0.2-1.1V312.2z M-102.8,307.8c0-0.2-0.1-0.4-0.1-0.6c0-0.2,0-0.4,0-0.5s0-0.3,0-0.5
		c0-0.2,0-0.4,0.1-0.6c0.2,0,0.4-0.1,0.6-0.1c0.2,0,0.4,0,0.6,0s0.4,0,0.6,0s0.4,0,0.6,0.1c0,0.2,0.1,0.4,0.1,0.6c0,0.2,0,0.4,0,0.5
		s0,0.3,0,0.5c0,0.2,0,0.4-0.1,0.6c-0.2,0-0.4,0.1-0.6,0.1c-0.2,0-0.4,0-0.6,0s-0.4,0-0.6,0C-102.4,307.8-102.6,307.8-102.8,307.8z"
		/>
	<path class="st0" d="M-96.2,305.7c0.2,0,0.3-0.1,0.5-0.1c0.2,0,0.4,0,0.6,0c0.2,0,0.4,0,0.6,0c0.2,0,0.4,0,0.6,0.1V320h6.4
		c0,0.2,0,0.3,0.1,0.5s0,0.3,0,0.5c0,0.4,0,0.7-0.1,1h-8.7V305.7z"/>
	<path class="st0" d="M-85.3,310.4c0.2,0,0.4-0.1,0.6-0.1c0.2,0,0.4,0,0.5,0c0.2,0,0.4,0,0.6,0c0.2,0,0.4,0,0.6,0.1v6.4
		c0,0.7,0.1,1.3,0.2,1.8c0.1,0.5,0.3,0.9,0.6,1.1s0.6,0.5,1,0.6c0.4,0.1,0.8,0.2,1.4,0.2c0.8,0,1.4-0.1,2-0.3v-9.8
		c0.2,0,0.4-0.1,0.6-0.1c0.2,0,0.4,0,0.6,0c0.2,0,0.4,0,0.6,0c0.2,0,0.4,0,0.6,0.1v11.3c-0.5,0.2-1.2,0.3-1.9,0.4
		c-0.7,0.1-1.5,0.2-2.3,0.2c-0.7,0-1.4-0.1-2.1-0.2c-0.7-0.1-1.2-0.4-1.7-0.8c-0.5-0.4-0.9-0.9-1.2-1.7c-0.3-0.7-0.4-1.7-0.4-2.8
		V310.4z"/>
</g>
</svg>
