<?xml version="1.0" standalone="no"?>
<!DOCTYPE svg PUBLIC "-//W3C//DTD SVG 20010904//EN"
 "http://www.w3.org/TR/2001/REC-SVG-20010904/DTD/svg10.dtd">
<svg version="1.0" xmlns="http://www.w3.org/2000/svg"
 width="700.000000pt" height="700.000000pt" viewBox="0 0 700.000000 700.000000"
 preserveAspectRatio="xMidYMid meet">
<metadata>
Created by potrace 1.11, written by Peter Selinger 2001-2013
</metadata>
<g transform="translate(0.000000,700.000000) scale(0.100000,-0.100000)"
fill="#000000" stroke="none">
<path d="M3830 6857 c-36 -13 -159 -72 -274 -131 -114 -59 -612 -310 -1105
-558 -1532 -770 -2144 -1080 -2181 -1103 -43 -27 -98 -88 -111 -122 -15 -41
-10 -111 11 -154 32 -61 90 -113 228 -203 786 -513 834 -543 936 -581 131 -49
96 -48 1706 -50 1603 -1 1593 -1 1745 46 64 19 268 113 340 157 96 57 131 78
147 87 28 16 952 580 1273 778 77 47 155 100 173 118 95 93 96 221 2 310 -31
30 -114 80 -285 169 -222 116 -310 162 -360 190 -27 15 -144 76 -260 135 -115
59 -255 131 -310 160 -55 29 -181 94 -280 145 -99 51 -225 116 -280 145 -55
29 -152 79 -215 113 -710 372 -693 363 -767 368 -54 4 -81 0 -133 -19z m358
-568 c108 -56 242 -125 297 -154 55 -29 163 -85 240 -125 77 -40 183 -95 235
-123 52 -28 103 -54 113 -59 40 -19 57 -27 147 -75 52 -28 158 -83 235 -123
77 -40 163 -85 190 -100 28 -15 120 -64 205 -108 85 -45 179 -94 208 -110 l53
-29 -39 -26 c-21 -15 -41 -27 -45 -27 -7 0 -291 -165 -667 -388 -440 -261
-510 -302 -550 -322 -44 -22 -157 -64 -205 -75 -16 -4 -39 -9 -50 -12 -40 -9
-234 -11 -281 -2 -27 5 -61 12 -75 14 -176 32 -487 190 -707 359 -113 88 -134
106 -264 231 -109 105 -165 146 -221 165 -49 15 -119 7 -156 -19 -16 -12 -32
-21 -36 -21 -4 0 -75 -67 -159 -149 -251 -249 -416 -373 -636 -479 -210 -102
-318 -126 -457 -103 -94 16 -156 48 -345 172 -87 57 -205 134 -263 172 -58 37
-105 72 -105 77 0 4 12 15 28 23 15 8 65 35 112 59 47 25 549 278 1115 563
567 285 1181 594 1365 687 392 199 410 207 473 207 41 1 74 -12 245 -100z"/>
<path d="M6545 4578 c-16 -6 -133 -75 -260 -153 -202 -125 -374 -227 -526
-314 -69 -39 -712 -411 -729 -421 -8 -5 -184 -106 -390 -225 -206 -118 -382
-219 -390 -225 -8 -5 -31 -18 -50 -28 -19 -11 -174 -100 -345 -199 -776 -449
-806 -466 -843 -468 -20 -1 -52 4 -71 12 -19 7 -182 109 -362 226 -180 116
-345 222 -366 235 -31 18 -602 387 -653 422 -23 15 -325 210 -881 567 -130 84
-236 145 -257 149 -29 6 -47 1 -90 -22 -131 -70 -182 -197 -124 -311 34 -65
35 -66 434 -324 73 -47 165 -106 203 -131 211 -135 636 -409 815 -525 113 -72
241 -155 285 -183 44 -28 258 -166 475 -306 456 -294 492 -314 567 -310 82 5
-17 -50 1528 843 286 165 534 308 550 317 17 9 44 25 61 35 37 23 671 388 734
423 25 14 80 46 123 72 43 25 80 46 81 46 12 0 649 375 677 399 69 57 95 167
59 248 -33 75 -146 164 -205 162 -11 0 -33 -5 -50 -11z"/>
<path d="M6548 3646 c-41 -15 -27 -7 -328 -191 -124 -76 -292 -178 -375 -225
-82 -48 -285 -165 -449 -260 -165 -95 -314 -180 -330 -190 -17 -9 -92 -52
-166 -95 -74 -43 -279 -161 -455 -262 -176 -101 -327 -188 -335 -193 -21 -13
-248 -144 -290 -168 -19 -11 -134 -77 -255 -147 -121 -70 -238 -137 -260 -150
-22 -12 -80 -46 -130 -74 -120 -70 -149 -82 -196 -76 -37 5 -100 42 -429 255
-39 25 -154 99 -256 165 -102 66 -196 127 -209 135 -25 16 -166 107 -305 196
-47 30 -119 77 -160 103 -41 27 -199 129 -350 226 -151 98 -306 199 -345 224
-38 25 -78 50 -87 56 -10 5 -89 56 -175 111 -189 122 -230 144 -264 144 -34 0
-139 -69 -173 -113 -67 -88 -49 -217 41 -298 32 -28 210 -147 528 -349 161
-103 784 -504 960 -618 204 -133 209 -136 610 -394 209 -134 407 -260 440
-280 118 -71 166 -81 245 -53 46 16 219 109 376 202 27 17 70 42 95 55 100 57
237 137 287 166 29 18 55 32 58 32 2 0 23 12 47 27 23 15 51 33 63 39 74 40
974 560 996 575 15 11 29 19 31 19 4 0 326 184 367 209 13 9 149 87 280 162
25 14 79 45 120 69 41 24 131 75 200 114 735 417 812 467 836 547 15 50 10
128 -11 169 -20 38 -87 105 -125 125 -41 21 -83 25 -122 11z"/>
<path d="M6545 2712 c-27 -10 -97 -47 -155 -84 -229 -144 -492 -301 -655 -394
-23 -12 -122 -69 -221 -126 -99 -57 -186 -107 -194 -111 -8 -4 -28 -15 -45
-26 -28 -17 -784 -454 -850 -491 -16 -9 -115 -67 -220 -127 -104 -61 -208
-121 -230 -133 -22 -12 -80 -46 -130 -75 -49 -29 -106 -61 -125 -72 -19 -11
-127 -73 -240 -138 -459 -265 -430 -250 -487 -249 -57 0 -18 -22 -446 255
-131 85 -249 161 -263 169 -13 8 -80 51 -147 94 -388 252 -672 436 -863 558
-75 48 -186 119 -248 159 -61 40 -149 97 -196 127 -47 31 -130 85 -185 120
-230 150 -242 153 -337 89 -66 -44 -111 -100 -117 -145 -12 -88 12 -170 63
-214 32 -29 250 -172 726 -478 349 -224 393 -252 550 -355 237 -154 340 -220
363 -233 12 -7 69 -44 127 -82 58 -38 174 -113 258 -167 83 -54 185 -119 225
-145 209 -135 347 -219 391 -239 77 -34 136 -26 239 33 26 16 50 28 52 28 2 0
116 65 252 143 136 79 338 196 448 259 208 120 500 288 571 329 22 13 90 52
150 87 60 35 116 67 124 72 16 10 241 139 298 172 18 10 102 58 185 107 84 48
249 143 367 211 237 136 295 169 325 187 11 7 27 16 35 20 8 4 64 35 124 70
60 35 110 63 111 63 2 0 34 19 71 41 38 23 87 52 109 64 162 88 366 213 397
243 89 85 84 233 -11 320 -39 35 -93 69 -121 75 -14 3 -47 -2 -75 -11z"/>
</g>
</svg>
